# AST/ASF file generated using VICON BodyLanguage
# -----------------------------------------------
:version 1.10
:name VICON
:units
  mass 1.0
  length 0.45
  angle deg
:documentation
   .ast/.asf automatically generated from VICON data using
   VICON BodyBuilder and BodyLanguage model FoxedUp or BRILLIANT.MOD
:root
   order TX TY TZ RX RY RZ
   axis XYZ
   position 0 0 0  
   orientation 0 0 0 
:bonedata
  begin
     id 1 
     name lhipjoint
     direction 0.70531 -0.63749 0.310071 
     length 2.59589 
     axis 0 0 0  XYZ
  end
  begin
     id 2 
     name lfemur
     direction 0.34202 -0.939693 0  
     length 6.19797  
     axis 0 0 20  XYZ
    dof rx ry rz
    limits (-160.0 20.0)
           (-70.0 70.0)
           (-60.0 70.0)
  end
  begin
     id 3 
     name ltibia
     direction 0.34202 -0.939693 0   
     length 7.80054   
     axis 0 0 20   XYZ
    dof rx
    limits (-10.0 170.0)
  end
  begin
     id 4 
     name lfoot
     direction 0.0828572 -0.227648 0.970212   
     length 1.88124   
     axis -90 7.62852e-016 20   XYZ
    dof rx rz
    limits (-45.0 90.0)
           (-70.0 20.0)
  end
  begin
     id 5 
     name ltoes
     direction 1.53544e-011 -4.219e-011 1   
     length 0.948015   
     axis -90 7.62852e-016 20   XYZ
    dof rx
    limits (-90.0 20.0)
  end
  begin
     id 6 
     name rhipjoint
     direction -0.730062 -0.614543 0.29891   
     length 2.69282  
     axis 0 0 0  XYZ 
  end
  begin
     id 7 
     name rfemur
     direction -0.34202 -0.939693 0   
     length 5.86298   
     axis 0 0 -20   XYZ
    dof rx ry rz
    limits (-160.0 20.0)
           (-70.0 70.0)
           (-70.0 60.0)
  end
  begin
     id 8 
     name rtibia
     direction -0.34202 -0.939693 0   
     length 7.72374   
     axis 0 0 -20   XYZ
    dof rx
    limits (-10.0 170.0)
 end
 begin
     id 9 
     name rfoot
     direction -0.0967421 -0.265797 0.959163   
     length 2.02368  
     axis -90 -7.62852e-016 -20   XYZ
    dof rx rz
    limits (-45.0 90.0)
           (-20.0 70.0)
  end
  begin
     id 10 
     name rtoes
     direction -1.53524e-011 -4.21768e-011 1   
     length 1.01373   
     axis -90 -7.62852e-016 -20   XYZ
    dof rx
    limits (-90.0 20.0)
  end
  begin
     id 11 
     name lowerback
     direction 0.00561702 0.992801 -0.119643   
     length 2.02816   
     axis 0 0 0   XYZ
    dof rx ry rz
    limits (-20.0 45.0)
           (-30.0 30.0)
           (-30.0 30.0)
  end
  begin
     id 12 
     name upperback
     direction 0.00155544 0.995735 -0.0922509   
     length 2.02265   
     axis 0 0 0   XYZ
    dof rx ry rz
    limits (-20.0 45.0)
           (-30.0 30.0)
           (-30.0 30.0)
  end
  begin
     id 13 
     name thorax
     direction -0.000937535 0.999317 -0.0369292   
     length 2.04823   
     axis 0 0 0   XYZ
    dof rx ry rz
    limits (-20.0 45.0)
           (-30.0 30.0)
           (-30.0 30.0)
  end
  begin
     id 14 
     name lowerneck
     direction -0.0813151 0.981659 0.172436   
     length 1.8875   
     axis 0 0 0   XYZ
    dof rx ry rz
    limits (-20.0 45.0)
           (-30.0 30.0)
           (-30.0 30.0)
  end
  begin
     id 15 
     name upperneck
     direction 0.119359 0.955672 -0.269157   
     length 1.92801   
     axis 0 0 0   XYZ
    dof rx ry rz
    limits (-20.0 45.0)
           (-30.0 30.0)
           (-30.0 30.0)
  end
  begin
     id 16
     name head
     direction 0.0421007 0.992672 -0.113268  
     length 1.95809  
     axis 0 0 0   XYZ
    dof rx ry rz
    limits (-20.0 45.0)
           (-30.0 30.0)
           (-30.0 30.0)
  end
  begin
     id 17 
     name lclavicle
     direction 0.944093 0.32865 -0.0260136  
     length 3.84992  
     axis 0 0 0   XYZ
    dof ry rz
    limits (-20.0 10.0)
           (0.0 20.0)
  end
  begin
     id 18 
     name lhumerus
     direction 1 -4.48979e-011 -1.27712e-029   
     length 5.53593   
     axis 180 -30 -90   XYZ
    dof rx ry rz
    limits (-60.0 90.0)
           (-90.0 90.0)
           (-90.0 90.0)
  end
  begin
     id 19
     name lradius
     direction 1 -4.48966e-011 1.00051e-028   
     length 3.13345   
     axis 180 -30 -90   XYZ
    dof rx
    limits (-10.0 170.0)
  end
  begin
     id 20
     name lwrist
     direction 1 -4.4896e-011 2.56952e-028   
     length 1.56673   
     axis -5.12785e-016 90 90   XYZ
    dof ry
    limits (-180.0 0.0)
 end
  begin
     id 21 
     name lhand
     direction 1 -4.48934e-011 5.13905e-028   
     length 0.713374   
     axis -3.27915e-016 90 90   XYZ
    dof rx rz
    limits (-90.0 90.0)
           (-45.0 45.0)
  end
  begin
     id 22 
     name lfingers
     direction 1 -4.48973e-011 1.02781e-027   
     length 0.575141   
     axis -6.5583e-016 90 90   XYZ
    dof rx
    limits (0.0 90.0)
  end
  begin
     id 23
     name lthumb
     direction 0.707107 -6.34883e-011 0.707107   
     length 0.82579   
     axis -90 45 2.85299e-015   XYZ
    dof rx rz
    limits (-45.0 45.0)
           (-45.0 45.0)
  end
  begin
     id 24 
     name rclavicle
     direction -0.936895 0.34884 0.0232243   
     length 3.53304  
     axis 0 0 0   XYZ 
    dof ry rz
    limits (-10.0 20.0)
           (-20.0 0.0)
  end
  begin
     id 25 
     name rhumerus
     direction -1 -4.48965e-011 1.05514e-027  
     length 5.4685   
     axis 180 30 90   XYZ
    dof rx ry rz
    limits (-90.0 60.0)
           (-90.0 90.0)
           (-90.0 90.0)
  end
  begin
     id 26 
     name rradius
     direction -1 -4.48964e-011 -1.1079e-027   
     length 3.22411   
     axis 180 30 90   XYZ
    dof rx
    limits (-10.0 170.0)
  end
  begin
     id 27 
     name rwrist
     direction -1 -4.48973e-011 2.56952e-028   
     length 1.61206   
     axis -5.12785e-016 -90 -90   XYZ
    dof ry
    limits (-180.0 0.0)
  end
  begin
     id 28
     name rhand
     direction -1 -4.48957e-011 5.13905e-028   
     length 0.74528   
     axis -3.27915e-016 -90 -90   XYZ
    dof rx rz
    limits (-90.0 90.0)
           (-45.0 45.0)
  end
  begin
     id 29
     name rfingers
     direction -1 -4.4901e-011 1.02781e-027   
     length 0.600864   
     axis -6.5583e-016 -90 -90   XYZ
    dof rx
    limits (0.0 90.0)
  end
  begin
     id 30
     name rthumb
     direction -0.707107 -6.34972e-011 0.707107   
     length 0.862724   
     axis -90 -45 -2.85299e-015   XYZ
    dof rx rz
    limits (-45.0 45.0)
           (-45.0 45.0)
  end
:hierarchy
  begin
    root lhipjoint rhipjoint lowerback
    lhipjoint lfemur
    lfemur ltibia
    ltibia lfoot
    lfoot ltoes
    rhipjoint rfemur
    rfemur rtibia
    rtibia rfoot
    rfoot rtoes
    lowerback upperback
    upperback thorax
    thorax lowerneck lclavicle rclavicle
    lowerneck upperneck
    upperneck head
    lclavicle lhumerus
    lhumerus lradius
    lradius lwrist
    lwrist lhand lthumb
    lhand lfingers
    rclavicle rhumerus
    rhumerus rradius
    rradius rwrist
    rwrist rhand rthumb
    rhand rfingers
  end

#!OML:ASF G:\Work\Work\Patient Classification 1\Liu\Session 1\Liu.ASF
:FULLY-SPECIFIED
:DEGREES
17
root 9.31736 15.864 -43.5928 8.15549 -1.69636 -0.861505
lowerback 0.195673 -0.315556 3.09982
upperback 2.19135 -0.453123 0.00704544
thorax 2.11581 -0.169102 -1.7371
lowerneck -23.4609 -9.16994 -16.673
upperneck 19.1019 -8.99613 8.59065
head 11.2424 -4.31241 4.30953
rclavicle -1.38155e-014 -4.96962e-016
rhumerus -38.2924 23.7382 -94.9348
rradius 40.563
rwrist -12.6199
rhand -11.8863 12.3895
rfingers 7.12502
rthumb 14.1666 -17.1075
lclavicle -1.38155e-014 -4.96962e-016
lhumerus -28.7587 -3.0143 84.7344
lradius 28.4649
lwrist -1.0205
lhand -14.5036 31.6686
lfingers 7.12502
lthumb 11.6435 61.3251
rfemur -8.97489 1.16086 27.5876
rtibia 22.2577
rfoot -24.3323 -3.40384
rtoes -12.8251
lfemur -37.6214 8.93359 -19.9374
ltibia 65.0952
lfoot -19.993 2.6457
ltoes -12.9451
18
root 9.31087 15.8669 -43.5105 8.02794 -1.33722 -0.364773
lowerback 0.108626 -0.39713 2.72622
upperback 2.0826 -0.556599 -0.128808
thorax 2.04858 -0.228321 -1.66902
lowerneck -22.3071 -9.15478 -16.8531
upperneck 18.7214 -9.16613 8.8155
head 10.9397 -4.40035 4.40956
rclavicle 8.69683e-016 -1.17283e-014
rhumerus -38.6527 24.1272 -95.169
rradius 40.5098
rwrist -13.4249
rhand -10.5349 11.1001
rfingers 7.12502
rthumb 15.4685 -18.301
lclavicle 8.69683e-016 -1.17283e-014
lhumerus -29.4096 -2.82992 84.7696
lradius 28.5516
lwrist -1.27733
lhand -14.446 31.7794
lfingers 7.12502
lthumb 11.6991 61.4327
rfemur -8.33576 0.782205 27.1229
rtibia 22.1081
rfoot -24.0754 -2.88125
rtoes -10.7449
lfemur -38.084 8.83439 -20.6281
ltibia 65.0607
lfoot -20.1724 2.46261
ltoes -13.0129
19
root 9.29722 15.86 -43.4626 8.14584 -1.3724 -0.559352
lowerback 0.292802 -0.322127 2.87287
upperback 1.80401 -0.448333 -0.0877219
thorax 1.66341 -0.180648 -1.70499
lowerneck -21.6018 -9.17337 -16.8353
upperneck 18.7869 -9.31644 8.74005
head 10.8536 -4.49629 4.36663
rclavicle -4.32357e-015 8.19987e-015
rhumerus -38.9314 24.1681 -95.2336
rradius 40.5791
rwrist -13.4915
rhand -21.1219 28.3565
rfingers 7.12502
rthumb 5.25665 -1.55829
lclavicle -4.32357e-015 8.19987e-015
lhumerus -30.1232 -2.8273 84.7809
lradius 28.7295
lwrist -1.24025
lhand -14.3843 32.0252
lfingers 7.12502
lthumb 11.7585 61.6751
rfemur -8.16522 1.35025 27.447
rtibia 21.909
rfoot -24.1892 -3.63426
rtoes -11.1259
lfemur -39.142 9.15995 -20.5689
ltibia 65.0966
lfoot -20.2495 1.79361
ltoes -9.72448
20
root 9.28572 15.8602 -43.4109 8.30076 -1.66632 -0.634861
lowerback 0.397102 -0.156172 2.91334
upperback 1.49881 -0.218815 -0.106281
thorax 1.30285 -0.073882 -1.74328
lowerneck -20.6304 -9.14652 -16.8604
upperneck 18.6539 -9.43324 8.69129
head 10.6452 -4.58102 4.35179
rclavicle -4.06266e-015 -2.93207e-015
rhumerus -39.6571 24.1767 -95.5085
rradius 40.5987
rwrist -12.4282
rhand -19.0981 23.7734
rfingers 7.12502
rthumb 7.21045 -6.08381
lclavicle -4.06266e-015 -2.93207e-015
lhumerus -30.7664 -2.92335 84.7942
lradius 28.7041
lwrist -1.04011
lhand -14.3856 31.9746
lfingers 7.12502
lthumb 11.7573 61.6246
rfemur -7.94772 1.51976 27.5152
rtibia 21.5643
rfoot -23.918 -3.42598
rtoes -9.87555
lfemur -40.1147 9.7037 -20.7364
ltibia 64.9471
lfoot -20.1656 1.27469
ltoes -5.68199
21
root 9.27567 15.8669 -43.3483 8.38603 -1.93999 -0.630753
lowerback 0.447709 -0.00714948 2.96179
upperback 1.25386 -0.0139159 -0.200985
thorax 1.03376 0.0228755 -1.86611
lowerneck -19.4097 -9.07305 -16.9791
upperneck 18.2209 -9.55514 8.92929
head 10.3048 -4.64553 4.46158
rclavicle 1.18028e-016 1.59028e-015
rhumerus -40.5249 24.2778 -96.0498
rradius 40.4976
rwrist -11.3746
rhand -22.033 27.4989
rfingers 7.12502
rthumb 4.3769 -2.43586
lclavicle 1.18028e-016 1.59028e-015
lhumerus -31.3238 -3.01066 84.7366
lradius 28.5899
lwrist -0.895081
lhand -14.5057 31.5235
lfingers 7.12502
lthumb 11.6415 61.1801
rfemur -7.60523 1.54971 27.4834
rtibia 21.2376
rfoot -24.2404 -3.44882
rtoes -12.7044
lfemur -40.9647 10.2969 -21.0531
ltibia 64.654
lfoot -19.9083 1.80373
ltoes -9.0431
22
root 9.26284 15.8633 -43.28 8.21954 -1.9203 -0.751435
lowerback 0.665582 -0.00767015 3.13853
upperback 1.52429 -0.0117891 -0.196038
thorax 1.18954 0.0313494 -1.96015
lowerneck -20.0875 -9.30365 -17.0532
upperneck 18.4025 -9.76022 9.01702
head 10.5313 -4.71836 4.45365
rclavicle -5.11249e-015 6.90777e-015
rhumerus -40.0204 24.7585 -96.0379
rradius 40.5292
rwrist -11.6013
rhand -14.4426 15.2816
rfingers 7.12502
rthumb 11.7023 -14.3716
lclavicle -5.11249e-015 6.90777e-015
lhumerus -31.015 -2.71216 84.604
lradius 28.5509
lwrist -1.05637
lhand -14.5359 31.2424
lfingers 7.12502
lthumb 11.6124 60.9007
rfemur -6.97258 1.92513 27.7053
rtibia 20.9586
rfoot -24.1163 -3.30032
rtoes -9.50129
lfemur -41.5393 10.6355 -21.1401
ltibia 64.2212
lfoot -19.6871 2.80953
ltoes -18.6457
23
root 9.25673 15.8544 -43.2136 8.16695 -1.4233 -0.57101
lowerback 0.753048 -0.165018 3.10864
upperback 1.62536 -0.219697 -0.225422
thorax 1.23232 -0.0707845 -1.9742
lowerneck -20.5094 -9.47347 -17.0012
upperneck 18.7312 -9.8983 8.78991
head 10.7315 -4.79573 4.32833
rclavicle 3.39176e-015 -3.926e-015
rhumerus -39.5431 24.9294 -95.7777
rradius 40.828
rwrist -12.314
rhand -9.34158 9.29107
rfingers 7.12502
rthumb 16.6176 -20.0175
lclavicle 3.39176e-015 -3.926e-015
lhumerus -30.9789 -2.40087 84.544
lradius 28.4947
lwrist -1.30146
lhand -14.3647 31.4043
lfingers 7.12502
lthumb 11.7774 61.0532
rfemur -6.41731 1.65443 27.6088
rtibia 20.6635
rfoot -24.214 -3.14547
rtoes -7.5283
lfemur -42.1121 10.3849 -21.5473
ltibia 63.5949
lfoot -19.7007 3.29397
ltoes -25.256
24
root 9.24814 15.8473 -43.1461 8.176 -1.04478 -0.491115
lowerback 0.835402 -0.213288 3.11994
upperback 1.14351 -0.273018 -0.288653
thorax 0.688162 -0.111456 -2.04411
lowerneck -18.5729 -9.24204 -16.9155
upperneck 18.3598 -9.91694 8.6912
head 10.2386 -4.85788 4.32316
rclavicle -5.31749e-015 4.27387e-015
rhumerus -40.3109 24.0685 -95.7146
rradius 41.7856
rwrist -13.8777
rhand -8.99941 11.2827
rfingers 7.12502
rthumb 16.947 -17.998
lclavicle -5.31749e-015 4.27387e-015
lhumerus -32.2525 -2.52368 84.5511
lradius 28.5912
lwrist -1.25112
lhand -14.2025 31.7713
lfingers 7.12502
lthumb 11.9338 61.4111
rfemur -5.90598 1.65868 27.6544
rtibia 20.3708
rfoot -24.3067 -3.47467
rtoes -7.82199
lfemur -42.731 10.18 -21.7991
ltibia 62.8978
lfoot -20.2826 2.88329
ltoes -25.1121
25
root 9.24647 15.8434 -43.0662 8.09512 -0.921637 -0.571334
lowerback 0.670462 -0.294301 3.35363
upperback 2.0915 -0.403926 -0.185846
thorax 1.74658 -0.145395 -2.07364
lowerneck -21.7018 -9.81105 -17.1096
upperneck 19.058 -10.1202 8.75774
head 11.1041 -4.87839 4.26343
rclavicle 4.69629e-015 2.5345e-015
rhumerus -38.6441 25.5429 -95.3965
rradius 40.7264
rwrist -11.7779
rhand -18.7483 22.5539
rfingers 7.12502
rthumb 7.54815 -7.29143
lclavicle 4.69629e-015 2.5345e-015
lhumerus -30.5999 -1.83392 84.5767
lradius 28.3441
lwrist -1.24633
lhand -14.2565 32.106
lfingers 7.12502
lthumb 11.8818 61.7488
rfemur -5.27846 2.00717 27.8295
rtibia 20.1286
rfoot -24.3925 -4.05695
rtoes -9.35252
lfemur -43.1946 10.1076 -21.8831
ltibia 62.1033
lfoot -19.9317 0.435362
ltoes -6.0075
